<svg width="1440" height="596" viewBox="0 0 1440 596" fill="none" xmlns="http://www.w3.org/2000/svg">
<rect width="1439" height="596" fill="#65A5EC"/>
<g clip-path="url(#clip0)">
<g opacity="0.3" clip-path="url(#clip1)">
<path fill-rule="evenodd" clip-rule="evenodd" d="M689.689 214.371C679.101 219.577 673.807 225.694 673.807 232.722C678.32 233.243 682.052 235.087 685.002 238.254C687.953 241.421 689.428 245.087 689.428 249.252C689.428 253.677 687.996 257.408 685.133 260.445C682.269 263.482 678.667 265 674.328 265C669.468 265 665.259 263.026 661.701 259.078C658.143 255.13 656.364 250.336 656.364 244.696C656.364 227.776 665.823 214.545 684.742 205L689.689 214.371ZM652.325 214.371C641.65 219.577 636.313 225.694 636.313 232.722C640.913 233.243 644.688 235.087 647.638 238.254C650.589 241.421 652.064 245.087 652.064 249.252C652.064 253.677 650.611 257.408 647.703 260.445C644.796 263.482 641.173 265 636.834 265C631.974 265 627.787 263.026 624.272 259.078C620.757 255.13 619 250.336 619 244.696C619 227.776 628.416 214.545 647.248 205L652.325 214.371Z" fill="#FFD23F"/>
</g>
<circle cx="6.5" cy="1.5" r="144.5" fill="#65B580"/>
</g>
<defs>
<clipPath id="clip0">
<rect width="1440" height="596" fill="white"/>
</clipPath>
<clipPath id="clip1">
<rect width="71" height="60" fill="white" transform="translate(619 205)"/>
</clipPath>
</defs>
</svg>
